<?xml version="1.0" encoding="UTF-8"?>
<svg id="Camada_2" data-name="Camada 2" xmlns="http://www.w3.org/2000/svg" viewBox="0 0 501.57 642.8">
  <defs>
    <style>
      .cls-1 {
        fill: #b9aa90;
      }

      .cls-2 {
        fill: #030b27;
      }

      .cls-3 {
        fill: #a0aeca;
      }

      .cls-4 {
        fill: #fef0ab;
      }

      .cls-5 {
        fill: #f4c1c4;
      }

      .cls-6 {
        fill: #030a25;
      }
    </style>
  </defs>
  <g>
    <path class="cls-2" d="M21.81,619.36v-120.52h76.42v21.55h-53.7v98.98h-22.72ZM34.44,571.21v-21.55h58.41v21.55h-58.41Z"/>
    <path class="cls-2" d="M86.45,619.36l45.11-120.52h26.09l45.28,120.52h-25.08l-28.11-79.96-4.38-14.48h-1.35l-4.38,14.48-28.11,79.96h-25.08ZM110.52,590.57l7.24-20.87h25.58v20.87h-32.82ZM143.35,590.57v-20.87h28.11l7.41,20.87h-35.52Z"/>
    <path class="cls-2" d="M207.98,619.36v-120.52h47.13c6.96,0,13.21,1.43,18.77,4.29,5.55,2.86,9.96,6.65,13.21,11.36,3.25,4.71,4.88,9.99,4.88,15.82,0,6.29-1.54,11.61-4.63,15.99-3.09,4.38-6.93,7.69-11.53,9.93v1.35c6.17,2.13,11.14,5.64,14.9,10.52,3.76,4.88,5.64,10.8,5.64,17.76s-1.77,12.77-5.3,17.76c-3.54,4.99-8.31,8.87-14.31,11.61-6,2.75-12.65,4.12-19.95,4.12h-48.81ZM220.61,567.51v-19.53h32.82c3.48,0,6.42-.64,8.84-1.94,2.41-1.29,4.26-3.06,5.55-5.3,1.29-2.24,1.94-4.66,1.94-7.24s-.62-5.11-1.85-7.24c-1.24-2.13-3.03-3.84-5.39-5.13-2.36-1.29-5.16-1.94-8.42-1.94h-23.4v79.45h25.25c3.81,0,7.01-.67,9.59-2.02,2.58-1.35,4.54-3.2,5.89-5.55,1.35-2.36,2.02-4.99,2.02-7.91s-.67-5.72-2.02-8.08c-1.35-2.36-3.37-4.21-6.06-5.56s-6.06-2.02-10.1-2.02h-34.68Z"/>
    <path class="cls-2" d="M304.77,619.36v-120.52h76.42v21.55h-53.7v77.43h53.7v21.55h-76.42ZM317.39,569.87v-21.55h58.41v21.55h-58.41Z"/>
    <path class="cls-2" d="M392.3,619.36v-120.52h43.93c8.08,0,15.12,1.63,21.12,4.88,6,3.26,10.69,7.74,14.06,13.47,3.37,5.72,5.05,12.29,5.05,19.69,0,5.5-1.15,10.52-3.45,15.07-2.3,4.54-5.44,8.47-9.43,11.78-3.98,3.31-8.64,5.87-13.97,7.66-5.33,1.8-11.03,2.69-17.09,2.69h-27.61v-20.87h31.14c3.48,0,6.51-.73,9.09-2.19,2.58-1.46,4.63-3.45,6.14-5.98,1.52-2.52,2.27-5.36,2.27-8.5,0-2.92-.65-5.64-1.94-8.16-1.29-2.53-3.23-4.57-5.81-6.14-2.58-1.57-5.72-2.36-9.43-2.36h-21.38v99.48h-22.72ZM418.89,564.65h26.6l37.37,53.36v1.35h-26.09l-37.87-54.71Z"/>
  </g>
  <path class="cls-4" d="M469.03,458.28l-53.57,14.3-26.48-101.53-31.41-120.41-31.66-120.8c-1.89-7.23-3.05-13.67-5.02-20.92-1.36-4.99-1.43-10.22,1.55-14.18s7.12-5.02,12.68-5.71c8.34-1.03,16.75-3.61,24.84-5.86,7.08-1.97,12.65,2.26,14.38,8.97l15.45,59.64,16.73,66.17,13.87,53.17,32.84,125.84,15.8,61.32Z"/>
  <path class="cls-2" d="M390.04,408.17l-2.89-13.84-29.69-111.34-31.1-118.14c-1.87-7.09-5.29-20.78-5.33-20.81l.02,338.22-72.75.14-.02-336.84c.08-11.98,7.9-23.73,20.14-24.5,10.39-.65,20.73-.32,31.15-.24,7.72.06,13.76,4.9,18.4,10.43-1.91-7.75-3.88-14.73-5.68-22.35-2.39-10.08,1.02-21.45,11.69-24.46l32.56-9.18c11.04-3.11,22.45,2.19,25.39,13.64l7.63,29.7,11.31,44.88,19.78,76.08,10.46,41.04,21.81,83.2,11.35,43.89,15.13,56.77-34.39,9.06-12.68,2.51-22.91,6.06-19.38-73.93ZM469.03,458.28l-15.8-61.32-32.84-125.84-13.87-53.17-16.73-66.17-15.45-59.64c-1.74-6.7-7.3-10.94-14.38-8.97-8.09,2.25-17.07,4.2-24.84,5.86-5.49,1.17-9.68,1.71-12.68,5.71s-2.67,9.13-1.55,14.18c1.61,7.25,3.4,13.86,5.02,20.92l31.66,120.8,31.41,120.41,26.48,101.53,53.57-14.3ZM312.51,474.9V142.25c-1.01-5.62-5.19-12.26-11.16-12.61-11.27-.66-22.57-.64-33.82-.06-6.29.32-9.77,7.02-10.91,12.87l-.02,332.38,55.91.08Z"/>
  <path class="cls-5" d="M312.51,474.9l-55.91-.08.02-332.38c1.14-5.85,4.62-12.55,10.91-12.87,11.25-.58,22.55-.6,33.82.06,5.97.35,10.15,7,11.16,12.61v332.66Z"/>
  <path class="cls-2" d="M175.62,480.7l-73.21.23-.07-435.54c1.49-11.46,10.97-18.12,21.88-17.95l34.43.55c10.01.16,16.32,9.94,16.96,19.71v433ZM167.22,472.54V45.86c-1.26-5.98-4.92-9.64-10.7-9.65l-34.49-.03c-6.31,0-11.21,4.56-11.21,11.43l.04,425.43,56.37-.5Z"/>
  <path class="cls-3" d="M167.22,472.54l-56.37.5-.04-425.43c0-6.86,4.9-11.44,11.21-11.43l34.49.03c5.78,0,9.44,3.67,10.69,9.65v426.68Z"/>
  <path class="cls-2" d="M94.97,480.73l-72.53.17-.02-385.91c.94-9.68,8.21-17.3,17.89-17.4,13.03-.13,25.68-.38,38.67.23,10.35.48,17.16,11.25,15.98,21.38v381.53ZM86.66,472.86V93.97c-1.32-4.59-5.1-8.15-9.69-8.15l-36.62.02c-4.5,0-8.64,3.95-9.63,8.25l-.02,378.95,55.96-.19Z"/>
  <path class="cls-1" d="M86.66,472.86l-55.96.19.02-378.95c.99-4.3,5.13-8.25,9.63-8.25l36.62-.02c4.59,0,8.37,3.56,9.69,8.15v378.89Z"/>
  <path class="cls-6" d="M242.47,321.83c0,16.84-13.65,30.49-30.49,30.49s-30.49-13.65-30.49-30.49,13.65-30.49,30.49-30.49,30.49,13.65,30.49,30.49ZM200.38,338.34c7.66,6.23,18.99,5.46,25.17-1.41,7.2-8.01,7.55-21.55-.03-29.38-6.21-6.42-17.69-7.31-24.75-1.81-10.15,7.9-10.53,24.36-.39,32.6Z"/>
  <polygon class="cls-6" points="217.68 285.09 206.16 285.36 206.19 238.13 189.88 238.07 190.34 227.46 233.23 227.51 233.27 238.31 217.79 238.11 217.68 285.09"/>
  <rect class="cls-6" x="182.78" y="185.58" width="58.18" height="11.73" transform="translate(20.24 403.14) rotate(-89.95)"/>
  <path class="cls-6" d="M224.21,416.76l-15.42-22.58-5.39.06-.02,22.09-10.72.02-.07-58.41,22.02.06c9.04.02,16.41,5.86,17.79,14.14,1.38,8.28-2.39,16.54-11.35,20.44l15.26,23.64-12.1.54ZM215.7,383.42c4.49-.13,6.75-5.16,6.38-8.38-.4-3.44-3.58-6.84-7.59-6.84l-11.15-.02v15.59s12.36-.35,12.36-.35Z"/>
  <path class="cls-6" d="M228.37,480.86l-5.12-13.35-22.59-.31-4.88,13.44-11.73.15,21.28-57.58,13.24-.13,10.69,28.98,10.65,28.67-11.54.12ZM219.67,456.91l-7.76-21.7-7.9,21.95,15.66-.25Z"/>
  <path class="cls-6" d="M238.15,121.94c2.1,18.77-11.01,32.95-28.93,32.9l-20.82-.05.04-57.8,22.81.22c13.84.13,25.34,10.78,26.91,24.73ZM227.31,129.43c1.56-10.7-5.08-21.44-15.99-21.7l-12.13-.29v36.99s12.12-.08,12.12-.08c8.78-.06,14.7-5.99,16-14.91Z"/>
  <polygon class="cls-6" points="229.09 65.79 205.39 65.87 205.21 79.94 231.32 80.02 231.46 89.69 195.09 89.69 195.08 31.86 231.3 31.87 231.41 42.08 205.3 42.14 205.08 55.38 229.04 55.58 229.09 65.79"/>
</svg>